# MagicaVoxel @ Ephtracy

# group
g shark

# material
mtllib shark.mtl
usemtl palette

# normals
vn -1 0 0
vn 1 0 0
vn 0 0 1
vn 0 0 -1
vn 0 -1 0
vn 0 1 0

# texcoords
vt 0.912109 0.5
vt 0.970703 0.5
vt 0.982422 0.5

# verts
v -9 2 -1
v -9 2 -4
v -9 3 -1
v -9 3 -4
v -8 1 -1
v -8 1 -4
v -8 2 -1
v -8 2 -4
v -8 3 -1
v -8 3 -2
v -8 3 -3
v -8 3 -4
v -8 4 -1
v -8 4 -2
v -8 4 -3
v -8 4 -4
v -7 0 -1
v -7 0 -4
v -7 1 -1
v -7 1 -4
v -4 2 1
v -4 2 -1
v -4 2 -4
v -4 2 -6
v -4 3 1
v -4 3 -1
v -4 3 -4
v -4 3 -6
v -4 4 -2
v -4 4 -3
v -4 5 -2
v -4 5 -3
v -3 5 -2
v -3 5 -3
v -3 6 -2
v -3 6 -3
v 3 3 -2
v 3 3 -3
v 3 4 -2
v 3 4 -3
v -2 2 1
v -2 2 -0
v -2 2 -5
v -2 2 -6
v -2 3 1
v -2 3 -0
v -2 3 -5
v -2 3 -6
v -2 5 -2
v -2 5 -3
v -2 6 -2
v -2 6 -3
v -1 2 -0
v -1 2 -1
v -1 2 -4
v -1 2 -5
v -1 3 -0
v -1 3 -1
v -1 3 -4
v -1 3 -5
v -1 4 -2
v -1 4 -3
v -1 5 -2
v -1 5 -3
v 2 0 -1
v 2 0 -4
v 2 1 -1
v 2 1 -4
v 2 3 -1
v 2 3 -4
v 2 4 -1
v 2 4 -4
v 3 1 -1
v 3 1 -2
v 3 1 -3
v 3 1 -4
v 3 2 -1
v 3 2 -2
v 3 2 -3
v 3 2 -4
v 3 3 -1
v 3 3 -2
v 3 3 -3
v 3 3 -4
v 4 2 -2
v 4 2 -3
v 4 3 -2
v 4 3 -3
v 5 1 -2
v 5 1 -3
v 5 2 -2
v 5 2 -3
v 5 3 -2
v 5 3 -3
v 5 4 -2
v 5 4 -3
v -4 2 1
v -4 3 1
v -2 2 1
v -2 3 1
v -2 2 -0
v -2 3 -0
v -1 2 -0
v -1 3 -0
v -9 2 -1
v -9 3 -1
v -8 1 -1
v -8 2 -1
v -8 3 -1
v -8 4 -1
v -7 0 -1
v -7 1 -1
v -7 3 -1
v -7 4 -1
v -4 2 -1
v -4 3 -1
v -1 2 -1
v -1 3 -1
v 2 0 -1
v 2 1 -1
v 2 3 -1
v 2 4 -1
v 3 1 -1
v 3 2 -1
v 3 3 -1
v -4 4 -2
v -4 5 -2
v -3 5 -2
v -3 6 -2
v -2 5 -2
v -2 6 -2
v -1 4 -2
v -1 5 -2
v 3 1 -2
v 3 2 -2
v 3 3 -2
v 3 4 -2
v 4 2 -2
v 4 3 -2
v 5 1 -2
v 5 2 -2
v 5 3 -2
v 5 4 -2
v -4 4 -3
v -4 5 -3
v -3 5 -3
v -3 6 -3
v -2 5 -3
v -2 6 -3
v -1 4 -3
v -1 5 -3
v 3 1 -3
v 3 2 -3
v 3 3 -3
v 3 4 -3
v 4 2 -3
v 4 3 -3
v 5 1 -3
v 5 2 -3
v 5 3 -3
v 5 4 -3
v -9 2 -4
v -9 3 -4
v -8 1 -4
v -8 2 -4
v -8 3 -4
v -8 4 -4
v -7 0 -4
v -7 1 -4
v -7 3 -4
v -7 4 -4
v -4 2 -4
v -4 3 -4
v -1 2 -4
v -1 3 -4
v 2 0 -4
v 2 1 -4
v 2 3 -4
v 2 4 -4
v 3 1 -4
v 3 2 -4
v 3 3 -4
v -2 2 -5
v -2 3 -5
v -1 2 -5
v -1 3 -5
v -4 2 -6
v -4 3 -6
v -2 2 -6
v -2 3 -6
v -7 0 -1
v 2 0 -1
v -7 0 -4
v 2 0 -4
v -8 1 -1
v -7 1 -1
v 2 1 -1
v 3 1 -1
v 3 1 -2
v 5 1 -2
v 3 1 -3
v 5 1 -3
v -8 1 -4
v -7 1 -4
v 2 1 -4
v 3 1 -4
v -4 2 1
v -2 2 1
v -2 2 -0
v -1 2 -0
v -9 2 -1
v -8 2 -1
v -4 2 -1
v -1 2 -1
v -9 2 -4
v -8 2 -4
v -4 2 -4
v -1 2 -4
v -2 2 -5
v -1 2 -5
v -4 2 -6
v -2 2 -6
v 4 3 -2
v 5 3 -2
v 4 3 -3
v 5 3 -3
v 4 2 -2
v 5 2 -2
v 4 2 -3
v 5 2 -3
v -4 3 1
v -2 3 1
v -2 3 -0
v -1 3 -0
v -9 3 -1
v -8 3 -1
v -4 3 -1
v -1 3 -1
v 2 3 -1
v 3 3 -1
v -8 3 -2
v 3 3 -2
v -8 3 -3
v 3 3 -3
v -9 3 -4
v -8 3 -4
v -4 3 -4
v -1 3 -4
v 2 3 -4
v 3 3 -4
v -2 3 -5
v -1 3 -5
v -4 3 -6
v -2 3 -6
v -8 4 -1
v -7 4 -1
v 2 4 -1
v -8 4 -2
v -7 4 -2
v -4 4 -2
v -1 4 -2
v 3 4 -2
v 5 4 -2
v -8 4 -3
v -7 4 -3
v -4 4 -3
v -1 4 -3
v 3 4 -3
v 5 4 -3
v -8 4 -4
v -7 4 -4
v 2 4 -4
v -4 5 -2
v -3 5 -2
v -2 5 -2
v -1 5 -2
v -4 5 -3
v -3 5 -3
v -2 5 -3
v -1 5 -3
v -3 6 -2
v -2 6 -2
v -3 6 -3
v -2 6 -3

# faces
f 3/3/1 2/3/1 1/3/1
f 4/3/1 2/3/1 3/3/1
f 7/2/1 6/2/1 5/2/1
f 8/2/1 6/2/1 7/2/1
f 13/1/1 10/1/1 9/1/1
f 14/3/1 11/3/1 10/3/1
f 14/1/1 10/1/1 13/1/1
f 15/1/1 12/1/1 11/1/1
f 15/3/1 11/3/1 14/3/1
f 16/1/1 12/1/1 15/1/1
f 19/2/1 18/2/1 17/2/1
f 20/2/1 18/2/1 19/2/1
f 25/3/1 22/3/1 21/3/1
f 26/3/1 22/3/1 25/3/1
f 27/3/1 24/3/1 23/3/1
f 28/3/1 24/3/1 27/3/1
f 31/3/1 30/3/1 29/3/1
f 32/3/1 30/3/1 31/3/1
f 35/3/1 34/3/1 33/3/1
f 36/3/1 34/3/1 35/3/1
f 39/3/1 38/3/1 37/3/1
f 40/3/1 38/3/1 39/3/1
f 41/3/2 42/3/2 45/3/2
f 45/3/2 42/3/2 46/3/2
f 43/3/2 44/3/2 47/3/2
f 47/3/2 44/3/2 48/3/2
f 49/3/2 50/3/2 51/3/2
f 51/3/2 50/3/2 52/3/2
f 53/3/2 54/3/2 57/3/2
f 57/3/2 54/3/2 58/3/2
f 55/3/2 56/3/2 59/3/2
f 59/3/2 56/3/2 60/3/2
f 61/3/2 62/3/2 63/3/2
f 63/3/2 62/3/2 64/3/2
f 65/2/2 66/2/2 67/2/2
f 67/2/2 66/2/2 68/2/2
f 69/3/2 70/3/2 71/3/2
f 71/3/2 70/3/2 72/3/2
f 73/2/2 74/2/2 77/2/2
f 77/2/2 74/2/2 78/2/2
f 75/2/2 76/2/2 79/2/2
f 79/2/2 76/2/2 80/2/2
f 77/3/2 78/3/2 81/3/2
f 81/3/2 78/3/2 82/3/2
f 79/3/2 80/3/2 83/3/2
f 83/3/2 80/3/2 84/3/2
f 85/3/2 86/3/2 87/3/2
f 87/3/2 86/3/2 88/3/2
f 89/3/2 90/3/2 91/3/2
f 91/3/2 90/3/2 92/3/2
f 93/3/2 94/3/2 95/3/2
f 95/3/2 94/3/2 96/3/2
f 99/3/3 98/3/3 97/3/3
f 100/3/3 98/3/3 99/3/3
f 103/3/3 102/3/3 101/3/3
f 104/3/3 102/3/3 103/3/3
f 108/3/3 106/3/3 105/3/3
f 109/3/3 106/3/3 108/3/3
f 112/2/3 108/2/3 107/2/3
f 113/1/3 110/1/3 109/1/3
f 113/3/3 109/3/3 108/3/3
f 114/1/3 110/1/3 113/1/3
f 115/2/3 112/2/3 111/2/3
f 115/2/3 108/2/3 112/2/3
f 115/3/3 114/3/3 113/3/3
f 115/3/3 113/3/3 108/3/3
f 116/3/3 114/3/3 115/3/3
f 117/2/3 115/2/3 111/2/3
f 118/3/3 114/3/3 116/3/3
f 119/2/3 117/2/3 111/2/3
f 120/2/3 117/2/3 119/2/3
f 121/3/3 118/3/3 117/3/3
f 121/3/3 114/3/3 118/3/3
f 122/3/3 114/3/3 121/3/3
f 123/2/3 117/2/3 120/2/3
f 124/3/3 121/3/3 117/3/3
f 124/2/3 117/2/3 123/2/3
f 125/3/3 121/3/3 124/3/3
f 128/3/3 127/3/3 126/3/3
f 130/3/3 128/3/3 126/3/3
f 130/3/3 129/3/3 128/3/3
f 131/3/3 129/3/3 130/3/3
f 132/3/3 130/3/3 126/3/3
f 133/3/3 130/3/3 132/3/3
f 138/3/3 135/3/3 134/3/3
f 138/3/3 137/3/3 136/3/3
f 138/3/3 136/3/3 135/3/3
f 139/3/3 137/3/3 138/3/3
f 140/3/3 138/3/3 134/3/3
f 141/3/3 138/3/3 140/3/3
f 142/3/3 137/3/3 139/3/3
f 143/3/3 137/3/3 142/3/3
f 144/3/4 145/3/4 146/3/4
f 144/3/4 146/3/4 148/3/4
f 146/3/4 147/3/4 148/3/4
f 148/3/4 147/3/4 149/3/4
f 144/3/4 148/3/4 150/3/4
f 150/3/4 148/3/4 151/3/4
f 152/3/4 153/3/4 156/3/4
f 154/3/4 155/3/4 156/3/4
f 153/3/4 154/3/4 156/3/4
f 156/3/4 155/3/4 157/3/4
f 152/3/4 156/3/4 158/3/4
f 158/3/4 156/3/4 159/3/4
f 157/3/4 155/3/4 160/3/4
f 160/3/4 155/3/4 161/3/4
f 162/3/4 163/3/4 165/3/4
f 165/3/4 163/3/4 166/3/4
f 164/2/4 165/2/4 169/2/4
f 166/1/4 167/1/4 170/1/4
f 165/3/4 166/3/4 170/3/4
f 170/1/4 167/1/4 171/1/4
f 168/2/4 169/2/4 172/2/4
f 169/2/4 165/2/4 172/2/4
f 170/3/4 171/3/4 172/3/4
f 165/3/4 170/3/4 172/3/4
f 172/3/4 171/3/4 173/3/4
f 168/2/4 172/2/4 174/2/4
f 173/3/4 171/3/4 175/3/4
f 168/2/4 174/2/4 176/2/4
f 176/2/4 174/2/4 177/2/4
f 174/3/4 175/3/4 178/3/4
f 175/3/4 171/3/4 178/3/4
f 178/3/4 171/3/4 179/3/4
f 177/2/4 174/2/4 180/2/4
f 174/3/4 178/3/4 181/3/4
f 180/2/4 174/2/4 181/2/4
f 181/3/4 178/3/4 182/3/4
f 183/3/4 184/3/4 185/3/4
f 185/3/4 184/3/4 186/3/4
f 187/3/4 188/3/4 189/3/4
f 189/3/4 188/3/4 190/3/4
f 193/2/5 192/2/5 191/2/5
f 194/2/5 192/2/5 193/2/5
f 199/2/5 198/2/5 197/2/5
f 201/2/5 199/2/5 197/2/5
f 201/3/5 200/3/5 199/3/5
f 202/3/5 200/3/5 201/3/5
f 203/2/5 196/2/5 195/2/5
f 204/2/5 196/2/5 203/2/5
f 205/2/5 201/2/5 197/2/5
f 206/2/5 201/2/5 205/2/5
f 209/3/5 208/3/5 207/3/5
f 213/3/5 209/3/5 207/3/5
f 213/3/5 210/3/5 209/3/5
f 214/3/5 210/3/5 213/3/5
f 215/3/5 212/3/5 211/3/5
f 216/3/5 212/3/5 215/3/5
f 219/3/5 218/3/5 217/3/5
f 220/3/5 218/3/5 219/3/5
f 221/3/5 219/3/5 217/3/5
f 222/3/5 219/3/5 221/3/5
f 225/3/5 224/3/5 223/3/5
f 226/3/5 224/3/5 225/3/5
f 227/3/6 228/3/6 229/3/6
f 229/3/6 228/3/6 230/3/6
f 231/3/6 232/3/6 233/3/6
f 231/3/6 233/3/6 237/3/6
f 233/3/6 234/3/6 237/3/6
f 237/3/6 234/3/6 238/3/6
f 235/3/6 236/3/6 241/3/6
f 239/3/6 240/3/6 242/3/6
f 235/3/6 241/3/6 243/3/6
f 239/3/6 242/3/6 244/3/6
f 235/3/6 243/3/6 245/3/6
f 245/3/6 243/3/6 246/3/6
f 239/3/6 244/3/6 249/3/6
f 249/3/6 244/3/6 250/3/6
f 247/3/6 248/3/6 251/3/6
f 251/3/6 248/3/6 252/3/6
f 247/3/6 251/3/6 253/3/6
f 253/3/6 251/3/6 254/3/6
f 255/1/6 256/1/6 258/1/6
f 256/3/6 257/3/6 259/3/6
f 258/1/6 256/1/6 259/1/6
f 259/3/6 257/3/6 260/3/6
f 260/3/6 257/3/6 261/3/6
f 258/3/6 259/3/6 264/3/6
f 259/3/6 260/3/6 264/3/6
f 264/3/6 260/3/6 265/3/6
f 265/3/6 260/3/6 266/3/6
f 261/3/6 257/3/6 267/3/6
f 262/3/6 263/3/6 268/3/6
f 268/3/6 263/3/6 269/3/6
f 264/1/6 265/1/6 270/1/6
f 266/3/6 267/3/6 271/3/6
f 270/1/6 265/1/6 271/1/6
f 265/3/6 266/3/6 271/3/6
f 267/3/6 257/3/6 272/3/6
f 271/3/6 267/3/6 272/3/6
f 273/3/6 274/3/6 277/3/6
f 277/3/6 274/3/6 278/3/6
f 275/3/6 276/3/6 279/3/6
f 279/3/6 276/3/6 280/3/6
f 281/3/6 282/3/6 283/3/6
f 283/3/6 282/3/6 284/3/6
